<svg width="52" height="52" viewBox="0 0 52 52" fill="none" xmlns="http://www.w3.org/2000/svg">
<path d="M28.6249 0.134858L27.3476 9.95436L28.7629 10.2359L30.7179 2.47312L30.9846 1.46578L30.8327 2.49595L29.6682 10.4159L31.0707 10.6949L33.6612 1.13665L32.7304 0.951507L30.7601 8.72448L30.5088 9.7216L30.6454 8.70165L31.7742 0.761294L30.5247 0.512748L28.5161 8.27811L28.2444 9.31095L28.3886 8.25275L29.5556 0.319999L28.6249 0.134858Z" fill="#E78FB3"/>
<path d="M33.5568 10.8269L32.5359 10.404L33.9836 6.90899L34.8844 7.2821L35.2525 6.39333L34.3517 6.02021L35.6154 2.96956L36.6363 3.39243L36.9895 2.53969L35.0438 1.73376L31.2629 10.8617L33.2086 11.6676L33.5568 10.8269Z" fill="#E78FB3"/>
<path d="M40.2665 7.51899C41.2849 5.9949 41.239 5.05741 40.1149 4.30628L39.3042 3.7646L33.8151 11.9795L34.6258 12.5212C35.7283 13.2579 36.6552 13.0173 37.8036 11.2986C38.5114 10.2393 38.642 9.43544 38.3578 8.85465C38.9671 8.90216 39.5948 8.52423 40.2665 7.51899ZM39.7426 5.16762C40.1425 5.43485 40.1601 5.85311 39.4234 6.95564C38.6651 8.09059 38.2791 8.2236 37.8792 7.95637L37.7603 7.87692L39.6237 5.08817L39.7426 5.16762ZM37.3447 8.75624C37.7555 9.03069 37.7694 9.4778 36.9389 10.7208C36.0866 11.9963 35.6827 12.1329 35.2719 11.8585L35.153 11.779L37.2258 8.67679L37.3447 8.75624Z" fill="#E78FB3"/>
<path d="M44.3896 7.69817C43.8289 7.13743 42.928 7.3029 42.2202 8.01071C40.2439 9.98707 40.5012 12.1565 38.819 13.8387C38.5065 14.1512 38.1112 14.3994 37.9366 14.2248C37.7527 14.0409 37.955 13.5997 38.865 12.6896L39.2235 12.3311L38.58 11.6877L38.194 12.0737C36.7691 13.4986 36.7967 14.2615 37.3575 14.8223C37.9917 15.4565 38.865 15.1532 39.536 14.4822C41.4113 12.6069 41.1631 10.4283 42.9372 8.65418C43.2957 8.29567 43.6634 8.16698 43.8013 8.30487C43.976 8.47952 43.7829 8.91156 42.8637 9.8308L42.4133 10.2812L43.0567 10.9247L43.5439 10.4375C44.9687 9.01268 44.9504 8.2589 44.3896 7.69817Z" fill="#E78FB3"/>
<path d="M39.5864 17.534L47.8013 12.0449L47.2307 11.191L39.0158 16.6801L39.5864 17.534Z" fill="#E78FB3"/>
<path d="M49.6475 17.8746L50.5002 17.5214L49.3908 14.8431L48.5381 15.1963L48.9012 16.073L40.626 19.5007L41.0141 20.4376L49.2893 17.0099L49.6475 17.8746Z" fill="#E78FB3"/>
<path d="M42.8143 23.8535L42.5987 22.7697L46.3091 22.0317L46.4993 22.9879L47.4428 22.8002L47.2526 21.844L50.4911 21.1998L50.7067 22.2836L51.612 22.1035L51.2011 20.038L41.5109 21.9655L41.9218 24.031L42.8143 23.8535Z" fill="#E78FB3"/>
<path d="M51.8651 28.6249L42.0456 27.3476L41.7641 28.7629L49.5269 30.7179L50.5342 30.9846L49.5041 30.8327L41.5841 29.6682L41.3051 31.0707L50.8634 33.6612L51.0485 32.7304L43.2755 30.7601L42.2784 30.5088L43.2983 30.6454L51.2387 31.7742L51.4873 30.5247L43.7219 28.5161L42.6891 28.2444L43.7473 28.3886L51.68 29.5556L51.8651 28.6249Z" fill="#E78FB3"/>
<path d="M41.1731 33.5568L41.596 32.5359L45.091 33.9836L44.7179 34.8844L45.6067 35.2525L45.9798 34.3517L49.0304 35.6154L48.6076 36.6363L49.4603 36.9895L50.2662 35.0438L41.1383 31.2629L40.3324 33.2086L41.1731 33.5568Z" fill="#E78FB3"/>
<path d="M44.481 40.2665C46.0051 41.2849 46.9426 41.239 47.6937 40.1149L48.2354 39.3042L40.0205 33.8151L39.4788 34.6258C38.7421 35.7283 38.9827 36.6552 40.7014 37.8036C41.7607 38.5114 42.5646 38.642 43.1453 38.3578C43.0978 38.9671 43.4758 39.5948 44.481 40.2665ZM46.8324 39.7426C46.5652 40.1425 46.1469 40.1601 45.0444 39.4234C43.9094 38.6651 43.7764 38.2791 44.0436 37.8792L44.1231 37.7603L46.9118 39.6237L46.8324 39.7426ZM43.2438 37.3447C42.9693 37.7555 42.5222 37.7694 41.2792 36.9389C40.0037 36.0866 39.8671 35.6827 40.1415 35.2719L40.221 35.153L43.3232 37.2258L43.2438 37.3447Z" fill="#E78FB3"/>
<path d="M44.3018 44.3896C44.8626 43.8289 44.6971 42.928 43.9893 42.2202C42.0129 40.2439 39.8435 40.5012 38.1613 38.819C37.8488 38.5065 37.6006 38.1112 37.7752 37.9366C37.9591 37.7527 38.4003 37.955 39.3104 38.865L39.6689 39.2235L40.3123 38.58L39.9263 38.194C38.5014 36.7691 37.7385 36.7967 37.1777 37.3575C36.5435 37.9917 36.8468 38.865 37.5178 39.536C39.3931 41.4113 41.5717 41.1631 43.3458 42.9372C43.7043 43.2957 43.833 43.6634 43.6951 43.8013C43.5205 43.976 43.0884 43.7829 42.1692 42.8637L41.7188 42.4133L41.0753 43.0567L41.5625 43.5439C42.9873 44.9687 43.7411 44.9504 44.3018 44.3896Z" fill="#E78FB3"/>
<path d="M34.466 39.5864L39.9551 47.8013L40.809 47.2307L35.3199 39.0158L34.466 39.5864Z" fill="#E78FB3"/>
<path d="M34.1254 49.6475L34.4786 50.5002L37.1569 49.3908L36.8037 48.5381L35.927 48.9012L32.4993 40.626L31.5624 41.0141L34.9901 49.2893L34.1254 49.6475Z" fill="#E78FB3"/>
<path d="M28.1465 42.8143L29.2303 42.5987L29.9683 46.3091L29.0121 46.4993L29.1998 47.4428L30.156 47.2526L30.8002 50.4911L29.7164 50.7067L29.8965 51.612L31.962 51.2011L30.0345 41.5109L27.969 41.9218L28.1465 42.8143Z" fill="#E78FB3"/>
<path d="M23.3751 51.8651L24.6524 42.0456L23.2371 41.7641L21.2821 49.5269L21.0154 50.5342L21.1673 49.5041L22.3318 41.5841L20.9293 41.3051L18.3388 50.8634L19.2696 51.0485L21.2399 43.2755L21.4912 42.2784L21.3546 43.2983L20.2258 51.2387L21.4753 51.4873L23.4839 43.7219L23.7556 42.6891L23.6114 43.7473L22.4444 51.68L23.3751 51.8651Z" fill="#E78FB3"/>
<path d="M18.4432 41.1731L19.4641 41.596L18.0164 45.091L17.1156 44.7179L16.7475 45.6067L17.6483 45.9798L16.3846 49.0304L15.3637 48.6076L15.0105 49.4603L16.9562 50.2662L20.7371 41.1383L18.7914 40.3324L18.4432 41.1731Z" fill="#E78FB3"/>
<path d="M11.7335 44.481C10.7151 46.0051 10.761 46.9426 11.8851 47.6937L12.6958 48.2354L18.1849 40.0205L17.3742 39.4788C16.2717 38.7421 15.3448 38.9827 14.1964 40.7014C13.4886 41.7607 13.358 42.5646 13.6422 43.1453C13.0329 43.0978 12.4052 43.4758 11.7335 44.481ZM12.2574 46.8324C11.8575 46.5652 11.8399 46.1469 12.5766 45.0444C13.3349 43.9094 13.7209 43.7764 14.1208 44.0436L14.2397 44.1231L12.3763 46.9118L12.2574 46.8324ZM14.6553 43.2438C14.2445 42.9693 14.2306 42.5222 15.0611 41.2792C15.9134 40.0037 16.3173 39.8671 16.7281 40.1415L16.847 40.221L14.7742 43.3232L14.6553 43.2438Z" fill="#E78FB3"/>
<path d="M7.61037 44.3018C8.17111 44.8626 9.07196 44.6971 9.77977 43.9893C11.7561 42.0129 11.4988 39.8435 13.181 38.1613C13.4935 37.8488 13.8888 37.6006 14.0634 37.7752C14.2473 37.9591 14.045 38.4003 13.135 39.3104L12.7765 39.6689L13.42 40.3123L13.806 39.9263C15.2309 38.5014 15.2033 37.7385 14.6425 37.1777C14.0083 36.5435 13.135 36.8468 12.464 37.5178C10.5887 39.3931 10.8369 41.5717 9.06277 43.3458C8.70427 43.7043 8.33657 43.833 8.19868 43.6951C8.02403 43.5205 8.21707 43.0884 9.13631 42.1692L9.58673 41.7188L8.94327 41.0753L8.45607 41.5625C7.03125 42.9873 7.04964 43.7411 7.61037 44.3018Z" fill="#E78FB3"/>
<path d="M12.4136 34.466L4.19869 39.9551L4.76926 40.809L12.9842 35.3199L12.4136 34.466Z" fill="#E78FB3"/>
<path d="M2.35255 34.1254L1.4998 34.4786L2.6092 37.1569L3.46195 36.8037L3.09878 35.927L11.374 32.4993L10.9859 31.5624L2.71074 34.9901L2.35255 34.1254Z" fill="#E78FB3"/>
<path d="M9.18568 28.1465L9.40126 29.2303L5.69094 29.9683L5.50073 29.0121L4.55722 29.1998L4.74743 30.156L1.50888 30.8002L1.2933 29.7164L0.388035 29.8965L0.798896 31.962L10.4891 30.0345L10.0782 27.969L9.18568 28.1465Z" fill="#E78FB3"/>
<path d="M0.134858 23.3751L9.95436 24.6524L10.2359 23.2371L2.47312 21.2821L1.46578 21.0154L2.49595 21.1673L10.4159 22.3318L10.6949 20.9293L1.13665 18.3388L0.951507 19.2696L8.72448 21.2399L9.7216 21.4912L8.70165 21.3546L0.761294 20.2258L0.512748 21.4753L8.27811 23.4839L9.31095 23.7556L8.25275 23.6114L0.319999 22.4444L0.134858 23.3751Z" fill="#E78FB3"/>
<path d="M10.8269 18.4432L10.404 19.4641L6.90899 18.0164L7.2821 17.1156L6.39333 16.7475L6.02021 17.6483L2.96956 16.3846L3.39243 15.3637L2.53969 15.0105L1.73376 16.9562L10.8617 20.7371L11.6676 18.7914L10.8269 18.4432Z" fill="#E78FB3"/>
<path d="M7.51899 11.7335C5.9949 10.7151 5.05741 10.761 4.30628 11.8851L3.7646 12.6958L11.9795 18.1849L12.5212 17.3742C13.2579 16.2717 13.0173 15.3448 11.2986 14.1964C10.2393 13.4886 9.43544 13.358 8.85465 13.6422C8.90216 13.0329 8.52423 12.4052 7.51899 11.7335ZM5.16762 12.2574C5.43485 11.8575 5.85311 11.8399 6.95564 12.5766C8.09059 13.3349 8.2236 13.7209 7.95637 14.1208L7.87692 14.2397L5.08817 12.3763L5.16762 12.2574ZM8.75624 14.6553C9.03069 14.2445 9.4778 14.2306 10.7208 15.0611C11.9963 15.9134 12.1329 16.3173 11.8585 16.7281L11.779 16.847L8.67679 14.7742L8.75624 14.6553Z" fill="#E78FB3"/>
<path d="M7.69817 7.61037C7.13743 8.17111 7.3029 9.07196 8.01071 9.77977C9.98707 11.7561 12.1565 11.4988 13.8387 13.181C14.1512 13.4935 14.3994 13.8888 14.2248 14.0634C14.0409 14.2473 13.5997 14.045 12.6896 13.135L12.3311 12.7765L11.6877 13.42L12.0737 13.806C13.4986 15.2309 14.2615 15.2033 14.8223 14.6425C15.4565 14.0083 15.1532 13.135 14.4822 12.464C12.6069 10.5887 10.4283 10.8369 8.65418 9.06277C8.29567 8.70427 8.16698 8.33657 8.30487 8.19868C8.47952 8.02403 8.91156 8.21707 9.8308 9.13631L10.2812 9.58673L10.9247 8.94327L10.4375 8.45607C9.01268 7.03125 8.2589 7.04964 7.69817 7.61037Z" fill="#E78FB3"/>
<path d="M17.534 12.4136L12.0449 4.19869L11.191 4.76926L16.6801 12.9842L17.534 12.4136Z" fill="#E78FB3"/>
<path d="M17.8746 2.35255L17.5214 1.4998L14.8431 2.6092L15.1963 3.46195L16.073 3.09878L19.5007 11.374L20.4376 10.9859L17.0099 2.71074L17.8746 2.35255Z" fill="#E78FB3"/>
<path d="M23.8535 9.18568L22.7697 9.40126L22.0317 5.69094L22.9879 5.50073L22.8002 4.55722L21.844 4.74743L21.1998 1.50888L22.2836 1.2933L22.1035 0.388035L20.038 0.798896L21.9655 10.4891L24.031 10.0782L23.8535 9.18568Z" fill="#E78FB3"/>
</svg>
