<svg width="15" height="15" viewBox="0 0 15 15" fill="none" xmlns="http://www.w3.org/2000/svg">
<path d="M7.01758 2.01855L8.14015 5.47347H11.7729L8.83393 7.60872L9.9565 11.0636L7.01758 8.92838L4.07865 11.0636L5.20122 7.60872L2.2623 5.47347H5.89501L7.01758 2.01855Z" fill="#FFC0AD"/>
<path d="M7.01758 2.01855L8.14015 5.47347H11.7729L8.83393 7.60872L9.9565 11.0636L7.01758 8.92838L4.07865 11.0636L5.20122 7.60872L2.2623 5.47347H5.89501L7.01758 2.01855Z" fill="#FFC0AD"/>
<path d="M8.67098 2.29955L8.58818 5.93132L12.0166 7.13235L8.53701 8.17588L8.45421 11.8076L6.38649 8.82082L2.90689 9.86435L5.10858 6.97485L3.04086 3.98802L6.46929 5.18905L8.67098 2.29955Z" fill="#FFC0AD"/>
<path d="M10.0958 3.07776L8.85378 6.49156L11.7167 8.72768L8.08619 8.60141L6.84421 12.0152L5.84241 8.52337L2.21189 8.3971L5.22326 6.36529L4.22146 2.87344L7.08439 5.10956L10.0958 3.07776Z" fill="#FFC0AD"/>
<path d="M10.9877 3.97885L8.92691 6.97043L11.1352 9.85485L7.65325 8.81933L5.59241 11.8109L5.50125 8.17935L2.01926 7.14382L5.44492 5.93491L5.35376 2.30334L7.56209 5.18776L10.9877 3.97885Z" fill="#FFC0AD"/>
</svg>
